<svg width="29" height="31" viewBox="0 0 29 31" fill="none" xmlns="http://www.w3.org/2000/svg">
<path fill-rule="evenodd" clip-rule="evenodd" d="M10.0277 5C7.73472 5 5.80843 6.72411 5.55522 9.00306L4.5 18.5H1.5C0.671573 18.5 0 19.1716 0 20V21.5C0 22.3284 0.671573 23 1.5 23H22.5C23.3284 23 24 22.3284 24 21.5V20C24 19.1716 23.3284 18.5 22.5 18.5H19.5L18.4448 9.00306C18.1916 6.72411 16.2653 5 13.9723 5H10.0277Z" fill="#4880FF"/>
<rect opacity="0.3" x="9" y="24.5" width="6" height="6" rx="2.25" fill="#FF0000"/>
<path fill-rule="evenodd" clip-rule="evenodd" d="M21 16C25.4183 16 29 12.4183 29 8C29 3.58172 25.4183 0 21 0C16.5817 0 13 3.58172 13 8C13 12.4183 16.5817 16 21 16Z" fill="#F93C65"/>
<path d="M21.128 6.576C21.624 6.576 22.068 6.692 22.46 6.924C22.852 7.148 23.156 7.468 23.372 7.884C23.596 8.292 23.708 8.76 23.708 9.288C23.708 9.832 23.588 10.32 23.348 10.752C23.108 11.176 22.772 11.508 22.34 11.748C21.908 11.988 21.42 12.108 20.876 12.108C19.804 12.108 18.976 11.748 18.392 11.028C17.816 10.3 17.528 9.264 17.528 7.92C17.528 6.992 17.664 6.192 17.936 5.52C18.216 4.84 18.616 4.324 19.136 3.972C19.656 3.612 20.272 3.432 20.984 3.432C21.488 3.432 21.98 3.52 22.46 3.696C22.94 3.864 23.356 4.104 23.708 4.416L23.192 5.544C22.448 4.96 21.732 4.668 21.044 4.668C20.428 4.668 19.948 4.932 19.604 5.46C19.26 5.98 19.08 6.736 19.064 7.728C19.248 7.368 19.524 7.088 19.892 6.888C20.26 6.68 20.672 6.576 21.128 6.576ZM20.804 10.884C21.244 10.884 21.592 10.744 21.848 10.464C22.112 10.184 22.244 9.808 22.244 9.336C22.244 8.872 22.112 8.5 21.848 8.22C21.584 7.94 21.232 7.8 20.792 7.8C20.352 7.8 19.992 7.944 19.712 8.232C19.44 8.512 19.304 8.88 19.304 9.336C19.304 9.8 19.44 10.176 19.712 10.464C19.992 10.744 20.356 10.884 20.804 10.884Z" fill="white"/>
</svg>
