<svg xmlns="http://www.w3.org/2000/svg" width="389.503" height="56.466" viewBox="0 0 339.503 56.466">
  <g id="Group_35891" data-name="Group 35891" transform="translate(0.001 0)">
    <g id="Group_45936" data-name="Group 45936">
      <g id="Group_45937" data-name="Group 45937" transform="translate(0 2)">
        <path id="Path_37935" data-name="Path 37935" d="M134.633,13.386c-1.949,0-2.751.745-2.751,2.579v.745c0,1.891.573,2.465,3.037,3.038l13.584,2.98c8.024,1.719,10.718,4.471,10.718,10.89v2.866c0,6.19-4.126,9.572-11.807,9.572H121.508l.745-5.331c.229-1.6,1.032-2.293,2.751-2.293H146.9c2.006,0,2.923-.745,2.923-2.636v-1.6c0-1.948-.63-2.579-3.21-3.153l-13.125-2.865C125.405,26.4,122.482,23.416,122.482,17v-1.6c0-6.248,4.127-9.629,11.807-9.629h23.442l-.8,5.33c-.23,1.6-1.031,2.293-2.751,2.293Z" transform="translate(-54.365 0.895)" fill="#fff"/>
        <path id="Path_37936" data-name="Path 37936" d="M185.7,40.85c0-5.732,3.266-8.6,9.686-8.6H206.62V30.59c.057-2.121-.917-2.923-2.981-2.923h-12.9a2.3,2.3,0,0,1-2.637-2.293l-.745-4.986h15.532c9.916,0,12.781,4.012,12.781,10.947V51.109H210.46c-1.433,0-1.948-.344-2.35-1.49l-.573-1.834h-.229c-1.376,2.465-4.242,3.84-8.081,3.84h-3.841c-6.018,0-9.686-2.522-9.686-8.482Zm14.959,3.725c4.127,0,5.961-1.376,5.961-4.3V38.5h-9.457c-1.719,0-2.407.573-2.407,2.178V42.34c0,1.6.688,2.235,2.407,2.235Z" transform="translate(-76.545 -4.158)" fill="#fff"/>
        <path id="Path_37937" data-name="Path 37937" d="M251.327,3.311V17.238h.229c1.2-2.064,3.783-3.267,7.337-3.267h3.954c7.394,0,11.864,4.126,11.864,11.807v8.138c0,7.393-4.184,11.807-11.864,11.807h-4.069c-3.9,0-6.763-1.376-8.139-3.84h-.229l-.573,1.835c-.4,1.146-.917,1.49-2.35,1.49h-5.216V3.311Zm0,30.147c0,3.611,1.662,4.929,5.273,4.929h3.725c3.611,0,5.33-1.318,5.33-4.929V26.237c0-3.61-1.719-4.928-5.33-4.928H256.6c-3.611,0-5.273,1.318-5.273,4.928Z" transform="translate(-96.092 1.742)" fill="#fff"/>
        <path id="Path_37938" data-name="Path 37938" d="M323.589,5.763c9.571,0,14.386,4.241,14.386,12.552v2.293c.115,8.254-4.815,12.552-14.386,12.552H310.521v12.9h-9.4V5.763Zm-13.068,7.623v12.15H323.3c3.783,0,5.272-1.433,5.272-4.757V18.142c0-3.381-1.547-4.757-5.272-4.757Z" transform="translate(-116.426 0.895)" fill="#f80"/>
        <path id="Path_37939" data-name="Path 37939" d="M363.562,40.85c0-5.732,3.267-8.6,9.686-8.6h11.234V30.59c.057-2.121-.918-2.923-2.98-2.923h-12.9a2.3,2.3,0,0,1-2.637-2.293l-.745-4.986h15.532c9.916,0,12.781,4.012,12.781,10.947V51.109h-5.216c-1.433,0-1.949-.344-2.35-1.49l-.573-1.834h-.23c-1.375,2.465-4.241,3.84-8.081,3.84h-3.84c-6.018,0-9.686-2.522-9.686-8.482Zm14.959,3.725c4.127,0,5.961-1.376,5.961-4.3V38.5h-9.457c-1.719,0-2.407.573-2.407,2.178V42.34c0,1.6.688,2.235,2.407,2.235Z" transform="translate(-138.001 -4.158)" fill="#f80"/>
        <path id="Path_37940" data-name="Path 37940" d="M420.134,2.523h9.4v7.508h-9.4Zm.172,11.692h9.056V44.936h-9.056Z" transform="translate(-157.547 2.015)" fill="#f80"/>
        <path id="Path_37941" data-name="Path 37941" d="M460.4,43.829a1.147,1.147,0,0,0,1.261-1.261V42.11c0-.86-.344-1.2-1.261-1.49l-10.374-2.751c-4.757-1.261-7.107-4.126-7.107-8.6V28.011c0-4.471,3.5-7.623,8.54-7.623h18.111l-.688,4.986a2.342,2.342,0,0,1-2.694,2.293H453.124a1.114,1.114,0,0,0-1.2,1.2v.4c0,.8.344,1.147,1.2,1.376l10.489,2.808c4.872,1.318,7.107,3.955,7.107,8.483v1.777c0,4.413-3.382,7.394-8.483,7.394H442.464l.687-4.986a2.343,2.343,0,0,1,2.694-2.293Z" transform="translate(-165.263 -4.158)" fill="#f80"/>
        <path id="Path_37942" data-name="Path 37942" d="M491.855,40.85c0-5.732,3.267-8.6,9.686-8.6h11.234V30.59c.057-2.121-.917-2.923-2.98-2.923H496.9a2.3,2.3,0,0,1-2.637-2.293l-.745-4.986h15.532c9.916,0,12.781,4.012,12.781,10.947V51.109h-5.216c-1.433,0-1.948-.344-2.35-1.49l-.573-1.834h-.229c-1.376,2.465-4.242,3.84-8.082,3.84h-3.84c-6.018,0-9.686-2.522-9.686-8.482Zm14.959,3.725c4.127,0,5.961-1.376,5.961-4.3V38.5h-9.457c-1.719,0-2.407.573-2.407,2.178V42.34c0,1.6.688,2.235,2.407,2.235Z" transform="translate(-182.328 -4.158)" fill="#f80"/>
      </g>
      <g id="Group_45938" data-name="Group 45938">
        <path id="Path_37975" data-name="Path 37975" d="M61.252,25.048a.021.021,0,0,1,0,.013c-.023.121-.048.235-.073.344s-.058.225-.086.328c-.018.063-.038.124-.055.18-.03.1-.063.187-.091.267-.02.056-.04.109-.058.154-.076.187-.129.291-.129.291a17.873,17.873,0,0,1-3.944,5.283c-.1.1-.2.205-.3.3-.545.538-1.061,1.018-1.49,1.4-.066.058-.129.114-.19.169s-.141.127-.207.182c-.033.03-.064.058-.093.083s-.076.066-.109.1-.048.04-.068.058-.056.048-.081.069-.058.05-.083.073c-.043.038-.083.071-.119.1l-.184.154a.2.2,0,0,1-.028.023c0,.006-.012.01-.018.015l-.015.013-6.018-6.157v5.874H34.881l12.362-12.38.727-.728a9.716,9.716,0,0,1,6.539-2.514,9.334,9.334,0,0,1,1.038.056,9.7,9.7,0,0,1,5.129,2.142s0,0,0,0,0,0,.01,0,0,0,.006.008a.519.519,0,0,1,.033.063,6.95,6.95,0,0,1,.275.652c.015.045.033.093.048.139.033.1.064.2.091.3a6.589,6.589,0,0,1,.111,2.938" transform="translate(-15.606 -8.388)" fill="#7bc3ff"/>
        <path id="Path_37976" data-name="Path 37976" d="M15.706,53.779l-.139.141c-.437.432-.806.791-1.16,1.132.543-.53.968-.947,1.3-1.273" transform="translate(-6.446 -24.062)" fill="#29bdff"/>
        <path id="Path_37977" data-name="Path 37977" d="M17.538,55.283a29,29,0,0,0-4.818,4.439,23.422,23.422,0,0,1,4.818-4.439" transform="translate(-5.691 -24.735)" fill="#0b8bff"/>
        <path id="Path_37978" data-name="Path 37978" d="M76.315,32.253a43.945,43.945,0,0,1-5.5,5.824l-.035.03-1.615-1.675.015-.013L69.2,36.4a.2.2,0,0,0,.028-.023l.185-.154c.035-.03.076-.063.119-.1.025-.023.055-.045.083-.073s.053-.043.081-.068.043-.038.068-.058.071-.061.109-.1.061-.053.093-.083c.066-.055.134-.116.207-.182s.124-.109.19-.169c.429-.387.945-.867,1.49-1.4.1-.1.2-.2.3-.3a18.939,18.939,0,0,0,3.944-5.283s.053-.1.129-.291c.018-.045.038-.1.059-.154.028-.081.06-.169.091-.268.018-.055.038-.116.056-.179.028-.1.058-.212.086-.329s.051-.222.074-.344a.024.024,0,0,0,0-.012,6.469,6.469,0,0,0-.111-2.939c-.025-.1-.055-.2-.091-.3-.015-.046-.033-.093-.048-.139a5.81,5.81,0,0,0-.324-.725s.006,0,.01,0a.011.011,0,0,0,0,.007,9.108,9.108,0,0,1,1.023.968,6.778,6.778,0,0,1,.886,3.358,7.489,7.489,0,0,1-1.627,5.189" transform="translate(-30.944 -10.169)" fill="#64b2ff"/>
        <path id="Path_37979" data-name="Path 37979" d="M34.43,55.1,21.755,67.818l-.483.485A9.77,9.77,0,0,1,8.753,69l0,0c-.813-1.246-1.617-3.535.015-6.8,0,0,.1-.2.326-.561.033-.058.053-.088.053-.088.035-.056.069-.111.106-.167s.066-.1.1-.154.063-.1.1-.144.058-.088.091-.134c.187-.27.412-.579.672-.915.043-.055.088-.113.134-.169.061-.073.121-.149.182-.225A29,29,0,0,1,15.345,55.2l.141-.1,5.97,5.922V55.1Z" transform="translate(-3.498 -24.653)" fill="#7bc3ff"/>
        <path id="Path_37980" data-name="Path 37980" d="M29.436,7.575a1.178,1.178,0,0,1,.01,1.664L12.137,26.8l-1.789,1.814s-.013.015-.05.053c-.013.013-.026.028-.044.045-.063.061-.154.157-.293.3l-.114.114c-.02.023-.04.043-.063.066-.064.065-.136.139-.218.219l-.174.175-.134.134c-.041.038-.083.081-.129.127-.341.333-.856.826-1.333,1.294L6.746,32.173q-.235.228-.448.455C1.159,38.05,4.063,43.049,4.383,43.565c.008.013.018.025.026.038l.061.091a10.074,10.074,0,0,1-.748-.773l-.006-.007A15.907,15.907,0,0,1,2.2,40.558a.135.135,0,0,1-.01-.023C-.92,34.624.151,28.083.285,27.156A25.311,25.311,0,0,1,8.079,12.669c.3-.285.591-.571.885-.861L20.467.344a1.178,1.178,0,0,1,1.659,0Z" transform="translate(0 0)" fill="#fff"/>
        <path id="Path_37981" data-name="Path 37981" d="M14.642,53.615l-.141.1a29,29,0,0,0-4.818,4.439c-.061.076-.122.151-.182.225-.046.056-.091.114-.134.169-.237.3-.465.6-.672.915-.033.046-.06.089-.091.134s-.066.1-.1.144-.069.1-.1.154-.071.111-.106.167c0,0-.02.03-.053.088-.222.356-.326.561-.326.561-1.632,3.264-.829,5.553-.015,6.8a9.669,9.669,0,0,1-.784-.649l-.06-.091c-.008-.013-.018-.025-.025-.038-.321-.515-3.224-5.515,1.915-10.937q.212-.228.447-.455L10.451,54.3c.477-.467.993-.96,1.334-1.294.045-.045.088-.088.129-.126l.134-.134.175-.174c.081-.081.154-.154.217-.22.023-.023.043-.043.063-.066l.114-.114c.139-.141.23-.237.293-.3.018-.018.03-.033.043-.045.038-.038.051-.053.051-.053Z" transform="translate(-2.654 -23.168)" fill="#64b2ff"/>
        <path id="Path_37982" data-name="Path 37982" d="M61.1,51.972s-4.017,4.371-6.1,6.2l-8.974,8.909a1.178,1.178,0,0,1-1.656,0l-7.42-7.3a1.178,1.178,0,0,1-.007-1.672l16.233-16.25q.53-.53,1.064-1.056.974-.959,1.966-1.907l.035-.03a43.945,43.945,0,0,0,5.5-5.824,7.489,7.489,0,0,0,1.627-5.189,6.774,6.774,0,0,0-.886-3.357c.159.169.308.343.452.526s.273.356.4.54a.3.3,0,0,1,.033.048c.114.174.228.356.344.548a18.425,18.425,0,0,1,2.855,9.277A25.974,25.974,0,0,1,61.1,51.972" transform="translate(-16.377 -10.961)" fill="#fff"/>
      </g>
    </g>
  </g>
</svg>
