<svg width="60" height="60" viewBox="0 0 60 60" fill="none" xmlns="http://www.w3.org/2000/svg">
<path opacity="0.21" d="M0 23C0 10.2975 10.2975 0 23 0H37C49.7025 0 60 10.2975 60 23V37C60 49.7025 49.7025 60 37 60H23C10.2975 60 0 49.7025 0 37V23Z" fill="#008A0E"/>
<g clip-path="url(#clip0_113_45)">
<path d="M16.8343 15.1429L43.12 27.0971L16.8343 15.1429Z" fill="#D5FFD9"/>
<path d="M16.8343 15.1429L43.12 27.0971" stroke="#0B9508" stroke-width="1.5" stroke-linecap="round" stroke-linejoin="round"/>
<path d="M38.2057 28.9485L43.12 27.097L41.2914 22.1599" stroke="#0B9508" stroke-width="1.5" stroke-linecap="round" stroke-linejoin="round"/>
<path d="M20.5635 28.5793L20.5635 28.5794C20.6372 28.653 20.6786 28.753 20.6786 28.8572V44.1072H16.4643V28.8572C16.4643 28.7529 16.5057 28.653 16.5793 28.5794L16.5794 28.5794C16.653 28.5057 16.753 28.4643 16.8571 28.4643H20.2857C20.3899 28.4643 20.4898 28.5057 20.5635 28.5793Z" fill="#D5FFD9" stroke="#0B9508" stroke-width="1.5"/>
<path d="M31.992 32.0079L31.9921 32.008C32.0658 32.0816 32.1071 32.1815 32.1071 32.2857V44.1071H27.8929V32.2857C27.8929 32.1815 27.9343 32.0816 28.0079 32.008L28.008 32.0079C28.0816 31.9342 28.1815 31.8929 28.2857 31.8929H31.7143C31.8185 31.8929 31.9184 31.9342 31.992 32.0079Z" fill="#D5FFD9" stroke="#0B9508" stroke-width="1.5"/>
<path d="M43.1429 35.3214H39.7143C39.6101 35.3214 39.5101 35.3628 39.4363 35.4366L38.9061 34.9062M43.1429 35.3214L38.9061 34.9062M43.1429 35.3214C43.2469 35.3214 43.3468 35.3627 43.4206 35.4363M43.1429 35.3214L43.4206 35.4363M38.9061 34.9062L39.4366 35.4363C39.3628 35.5101 39.3214 35.6101 39.3214 35.7143V44.1071H43.5357V35.7143C43.5357 35.6102 43.4943 35.5102 43.4207 35.4364C43.4207 35.4364 43.4206 35.4364 43.4206 35.4363M38.9061 34.9062C39.1205 34.6918 39.4112 34.5714 39.7143 34.5714H43.1429C43.4459 34.5714 43.7367 34.6918 43.9511 34.9062L43.4206 35.4363" fill="#D5FFD9" stroke="#0B9508" stroke-width="1.5"/>
<path d="M16.8571 27.7143H20.2857C20.5888 27.7143 20.8795 27.8347 21.0938 28.049C21.3082 28.2633 21.4286 28.554 21.4286 28.8572V44.8572H15.7143V28.8572C15.7143 28.554 15.8347 28.2633 16.049 28.049C16.2633 27.8347 16.554 27.7143 16.8571 27.7143Z" fill="#D5FFD9" stroke="#0B9508" stroke-width="1.5" stroke-linecap="round" stroke-linejoin="round"/>
<path d="M28.2857 31.1429H31.7143C32.0174 31.1429 32.3081 31.2633 32.5224 31.4776C32.7367 31.6919 32.8571 31.9826 32.8571 32.2857V44.8571H27.1429V32.2857C27.1429 31.9826 27.2633 31.6919 27.4776 31.4776C27.6919 31.2633 27.9826 31.1429 28.2857 31.1429Z" fill="#D5FFD9" stroke="#0B9508" stroke-width="1.5" stroke-linecap="round" stroke-linejoin="round"/>
<path d="M39.7143 34.5714H43.1429C43.4459 34.5714 43.7367 34.6918 43.9511 34.9062C44.1653 35.1205 44.2857 35.4112 44.2857 35.7143V44.8571H38.5714V35.7143C38.5714 35.4112 38.6919 35.1205 38.9061 34.9062C39.1205 34.6918 39.4112 34.5714 39.7143 34.5714Z" fill="#D5FFD9" stroke="#0B9508" stroke-width="1.5" stroke-linecap="round" stroke-linejoin="round"/>
</g>
<defs>
<clipPath id="clip0_113_45">
<rect width="32" height="32" fill="white" transform="translate(14 14)"/>
</clipPath>
</defs>
</svg>
