<svg width="60" height="60" viewBox="0 0 60 60" fill="none" xmlns="http://www.w3.org/2000/svg">
<path opacity="0.21" fill-rule="evenodd" clip-rule="evenodd" d="M0 30V37C0 49.7025 10.2975 60 23 60H30H37C49.7025 60 60 49.7025 60 37V30V23C60 10.2975 49.7025 0 37 0H30H23C10.2975 0 0 10.2975 0 23V30Z" fill="#FF839E"/>
<g clip-path="url(#clip0_1_229)">
<path d="M30.85 15.55H37.99C40.846 15.55 42.274 15.55 43.362 16.111C44.314 16.604 45.096 17.386 45.589 18.338C46.15 19.426 46.15 20.854 46.15 23.71V37.99C46.15 40.846 46.15 42.274 45.589 43.362C45.096 44.314 44.314 45.096 43.362 45.589C42.274 46.15 40.846 46.15 37.99 46.15H23.71C20.854 46.15 19.426 46.15 18.338 45.589C17.386 45.096 16.604 44.314 16.111 43.362C15.55 42.274 15.55 40.846 15.55 37.99V30.85M24.05 32.55V39.35V32.55ZM37.65 29.15V39.35V29.15ZM30.85 22.35V39.35V22.35ZM13.85 18.95L18.95 24.05L13.85 18.95ZM18.95 24.05L24.05 18.95L18.95 24.05ZM18.95 24.05V13.85V24.05Z" fill="#FFAABC"/>
<path d="M30.85 15.55H37.99C40.846 15.55 42.274 15.55 43.362 16.111C44.314 16.604 45.096 17.386 45.589 18.338C46.15 19.426 46.15 20.854 46.15 23.71V37.99C46.15 40.846 46.15 42.274 45.589 43.362C45.096 44.314 44.314 45.096 43.362 45.589C42.274 46.15 40.846 46.15 37.99 46.15H23.71C20.854 46.15 19.426 46.15 18.338 45.589C17.386 45.096 16.604 44.314 16.111 43.362C15.55 42.274 15.55 40.846 15.55 37.99V30.85M24.05 32.55V39.35M37.65 29.15V39.35M30.85 22.35V39.35M13.85 18.95L18.95 24.05M18.95 24.05L24.05 18.95M18.95 24.05V13.85" stroke="#F93C65" stroke-width="2" stroke-linecap="round" stroke-linejoin="round"/>
</g>
<defs>
<clipPath id="clip0_1_229">
<rect width="34" height="34" fill="white" transform="translate(13 13)"/>
</clipPath>
</defs>
</svg>
